# xmcd
#
# Track frame offsets:
#	150
#	23087
#	40762
#	65656
#	105179
#	126471
#	157325
#	197242
#	218069
#	236206
#	260386
#	279687
#
# Disc length: 4038 seconds
#
# Revision: 5
# Processed by: cddbd v1.5.2PL0 Copyright (c) Steve Scherf et al.
# Submitted via: EZCDAudioConverter 1.5.4.1
#
DISCID=b40fc40c
DTITLE=Various Artist - Blues on Blonde on Blonde
DYEAR=2003
DGENRE=Blues
TTITLE0=Brian Stoltz - Rainy Day Women #12 and 35
TTITLE1=Sue Foley - Most Likely You Go Your Way (And I'll Go Mine)
TTITLE2=Walter Trout - Leopard-Skin Pill-Box Hat
TTITLE3=Anders Osborne - Visions of Johanna
TTITLE4=Duke Robillard - Pledging My Time
TTITLE5=Eric Bibb - Just Like a Woman
TTITLE6=Joe Louis Walker - Stuck Inside of Mobile With the Memphis Blues Again
TTITLE7=Sean Costello - Obviously 5 Believers
TTITLE8=Clarence Bucaro - One of Us Must Know (Sooner or Later)
TTITLE9=Deborah Coleman - Temporary Like Achilles
TTITLE10=Cyril Neville - I Want You
TTITLE11=C.J. Chenier - Absolutely Sweet Marie
EXTD=
EXTT0=
EXTT1=
EXTT2=
EXTT3=
EXTT4=
EXTT5=
EXTT6=
EXTT7=
EXTT8=
EXTT9=
EXTT10=
EXTT11=
PLAYORDER=
